<svg id="visual" viewBox="0 0 900 600" width="900" height="600" xmlns="http://www.w3.org/2000/svg" xmlns:xlink="http://www.w3.org/1999/xlink" version="1.1"><rect x="0" y="0" width="900" height="600" fill="#222222"></rect><defs><linearGradient id="grad1_0" x1="33.3%" y1="100%" x2="100%" y2="0%"><stop offset="20%" stop-color="#222222" stop-opacity="1"></stop><stop offset="80%" stop-color="#222222" stop-opacity="1"></stop></linearGradient></defs><defs><linearGradient id="grad2_0" x1="0%" y1="100%" x2="66.7%" y2="0%"><stop offset="20%" stop-color="#222222" stop-opacity="1"></stop><stop offset="80%" stop-color="#222222" stop-opacity="1"></stop></linearGradient></defs><g transform="translate(900, 600)"><path d="M-297.5 0C-293 -38.8 -288.6 -77.6 -274.8 -113.8C-261.1 -150 -238.1 -183.6 -209.3 -209.3C-180.5 -235 -146.1 -252.7 -110.2 -266.1C-74.4 -279.4 -37.2 -288.5 0 -297.5L0 0Z" fill="#28b5b5"></path></g><g transform="translate(0, 0)"><path d="M297.5 0C288.2 37.8 278.9 75.6 263.3 109.1C247.7 142.6 225.8 171.8 200.8 200.8C175.8 229.9 147.8 258.7 113.8 274.8C79.9 290.9 39.9 294.2 0 297.5L0 0Z" fill="#28b5b5"></path></g></svg>