<svg width="2700" height="2700" viewBox="0 0 2700 2700" fill="none" xmlns="http://www.w3.org/2000/svg">
<circle cx="1350" cy="1350" r="1350" fill="#28B5B5"/>
<g clip-path="url(#clip0_201_7)">
<path d="M1934.47 447.129C1929.21 498.729 1890.87 714.238 1780.19 919.224C1779.66 920.025 1778.93 920.677 1778.07 921.116C1777.21 921.556 1776.25 921.768 1775.29 921.734C1774.33 921.7 1773.39 921.421 1772.57 920.922C1771.74 920.423 1771.06 919.722 1770.58 918.884C1747.96 872.263 1629.99 666.655 1322.17 664.788C974.928 662.638 805.042 932.237 805.042 932.237C805.042 932.237 672.424 1118.55 615.644 1469.11C558.865 1819.68 487.777 1916.09 487.777 1916.09L430.206 2007.24C429.111 2008.98 428.402 2010.93 428.128 2012.97C427.853 2015.01 428.019 2017.08 428.614 2019.05C429.21 2021.02 430.22 2022.84 431.577 2024.38C432.935 2025.92 434.608 2027.16 436.483 2028C510.002 2060.87 847.513 2199.89 1294.29 2199.89C1598.54 2199.89 1690.16 2157 1714.2 2140.2C1714.82 2139.78 1715.3 2139.18 1715.55 2138.47C1715.81 2137.77 1715.82 2137 1715.6 2136.28C1715.37 2135.56 1714.92 2134.94 1714.31 2134.5C1713.7 2134.07 1712.97 2133.84 1712.22 2133.86C1652.55 2140.42 1422.66 2104.1 1422.66 1884.91C1422.66 1688.07 1565.74 1592.85 1715.67 1586.01C1786.7 1582.72 1938.2 1612.82 1985.54 1751.78C2025.13 1868.67 1972.47 1973.29 1954.72 2003.56C1954.34 2004.19 1954.17 2004.93 1954.24 2005.66C1954.3 2006.4 1954.6 2007.09 1955.08 2007.65C1955.56 2008.21 1956.21 2008.6 1956.92 2008.77C1957.64 2008.94 1958.39 2008.88 1959.07 2008.59C2012.91 1986.87 2262.82 1862.79 2272.77 1477.03C2281.54 1138.07 2003.35 992.606 1872.38 986.439C1871.33 986.356 1870.32 986.028 1869.42 985.481C1868.53 984.934 1867.78 984.184 1867.22 983.291C1866.67 982.398 1866.34 981.388 1866.25 980.343C1866.17 979.297 1866.33 978.246 1866.72 977.274C1901.95 887.087 2121.21 653.246 2159.89 612.566C2161.47 610.913 2162.35 608.714 2162.35 606.427C2162.35 604.14 2161.47 601.941 2159.89 600.288C2096.98 536.861 2024.97 483.163 1946.23 440.962C1945.08 440.345 1943.79 440.019 1942.48 440.014C1941.17 440.008 1939.88 440.324 1938.72 440.932C1937.56 441.54 1936.57 442.422 1935.83 443.502C1935.09 444.583 1934.62 445.828 1934.47 447.129V447.129Z" fill="white"/>
</g>
<defs>
<clipPath id="clip0_201_7">
<rect width="1845" height="1760" fill="white" transform="translate(428 440)"/>
</clipPath>
</defs>
</svg>
