<svg width="15805" height="2700" viewBox="0 0 15805 2700" fill="none" xmlns="http://www.w3.org/2000/svg">
<circle cx="1350" cy="1350" r="1350" fill="#7E06AA"/>
<path d="M3996.28 1203.28H4352.16C4424.95 1205.97 4469.43 1224.84 4485.61 1259.89C4499.09 1285.5 4505.83 1323.25 4505.83 1373.12V1817.96C4505.83 1861.1 4486.96 1902.21 4449.21 1941.31C4335.98 2058.58 4166.13 2117.22 3939.67 2117.22C3738.82 2117.22 3564.25 2041.73 3415.97 1890.76C3267.69 1738.43 3193.55 1555.1 3193.55 1340.77C3193.55 1126.44 3269.04 947.83 3420.01 804.942C3570.99 660.706 3748.93 588.588 3953.82 588.588C4112.89 588.588 4263.19 641.16 4404.73 746.304C4441.12 773.264 4459.32 803.594 4459.32 837.294C4459.32 869.646 4443.82 907.39 4412.82 950.526C4360.24 1021.97 4312.39 1057.69 4269.25 1057.69C4243.64 1057.69 4202.53 1039.49 4145.91 1003.1C4089.3 965.354 4021.9 946.482 3943.71 946.482C3841.26 946.482 3750.27 982.878 3670.74 1055.67C3591.21 1127.11 3551.44 1221.47 3551.44 1338.75C3551.44 1454.68 3591.88 1553.76 3672.76 1635.98C3753.64 1716.86 3845.31 1757.3 3947.76 1757.3C4021.9 1757.3 4088.62 1745.17 4147.93 1720.91V1500.51H3988.2C3946.41 1500.51 3916.75 1495.12 3899.23 1484.33C3881.7 1473.55 3870.25 1458.05 3864.85 1437.83C3859.46 1416.26 3856.77 1387.95 3856.77 1352.9C3856.77 1316.51 3859.46 1287.53 3864.85 1265.96C3871.59 1244.39 3883.05 1229.56 3899.23 1221.47C3923.49 1209.34 3955.84 1203.28 3996.28 1203.28ZM6440.61 622.962C6530.93 655.314 6576.09 698.45 6576.09 752.37C6576.09 769.894 6568 802.92 6551.82 851.448L6163.6 1973.66C6160.9 1983.09 6156.19 1994.55 6149.45 2008.03C6142.71 2021.51 6124.51 2039.71 6094.85 2062.63C6066.54 2084.19 6032.17 2094.98 5991.73 2094.98C5952.64 2094.98 5918.26 2084.19 5888.61 2062.63C5860.3 2039.71 5841.43 2017.47 5831.99 1995.9L5595.42 1298.31C5445.79 1740.45 5369.63 1965.57 5366.93 1973.66C5364.24 1981.75 5358.17 1993.2 5348.73 2008.03C5339.3 2022.86 5328.51 2036.34 5316.38 2048.47C5285.38 2079.48 5248.31 2094.98 5205.17 2094.98C5162.04 2094.98 5126.31 2084.87 5098.01 2064.65C5071.05 2044.43 5052.85 2024.21 5043.41 2003.99L5029.26 1973.66L4639.01 851.448C4624.18 806.964 4616.77 773.938 4616.77 752.37C4616.77 698.45 4661.93 655.988 4752.24 624.984C4791.34 611.504 4826.38 604.764 4857.39 604.764C4889.74 604.764 4914 615.548 4930.18 637.116C4947.7 658.684 4963.21 691.71 4976.69 736.194L5199.11 1411.54L5419.5 746.304C5438.38 689.688 5472.75 650.596 5522.63 629.028C5544.19 619.592 5571.83 614.874 5605.53 614.874C5640.58 614.874 5672.93 626.332 5702.58 649.248C5732.24 670.816 5751.11 692.384 5759.2 713.952L5991.73 1415.59L6214.15 736.194C6224.93 705.19 6233.7 682.274 6240.44 667.446C6247.18 652.618 6259.31 638.464 6276.83 624.984C6295.7 610.156 6318.62 602.742 6345.58 602.742C6372.54 602.742 6404.22 609.482 6440.61 622.962ZM6709.59 1888.73C6674.54 1845.6 6657.01 1807.18 6657.01 1773.48C6657.01 1738.43 6686 1692.6 6743.96 1635.98C6777.66 1603.63 6813.38 1587.46 6851.13 1587.46C6888.87 1587.46 6941.44 1621.16 7008.84 1688.56C7027.71 1711.47 7054.67 1733.71 7089.72 1755.28C7124.77 1775.5 7157.12 1785.61 7186.78 1785.61C7312.14 1785.61 7374.82 1734.39 7374.82 1631.94C7374.82 1600.94 7357.3 1575.32 7322.25 1555.1C7288.55 1533.54 7246.09 1518.03 7194.87 1508.6C7143.64 1499.16 7088.37 1484.33 7029.06 1464.11C6969.75 1442.55 6914.48 1417.61 6863.26 1389.3C6812.03 1360.99 6768.9 1316.51 6733.85 1255.85C6700.15 1193.84 6683.3 1119.7 6683.3 1033.43C6683.3 914.804 6727.11 811.682 6814.73 724.062C6903.7 635.094 7024.34 590.61 7176.67 590.61C7257.55 590.61 7331.01 601.394 7397.07 622.962C7464.47 643.182 7510.97 664.076 7536.58 685.644L7587.13 724.062C7628.92 763.154 7649.82 796.18 7649.82 823.14C7649.82 850.1 7633.64 887.17 7601.29 934.35C7555.46 1001.75 7508.28 1035.45 7459.75 1035.45C7431.44 1035.45 7396.39 1021.97 7354.6 995.01C7350.56 992.314 7342.47 985.574 7330.34 974.79C7319.56 964.006 7309.45 955.244 7300.01 948.504C7271.7 930.98 7235.31 922.218 7190.82 922.218C7147.69 922.218 7111.29 933.002 7081.63 954.57C7053.33 974.79 7039.17 1003.77 7039.17 1041.52C7039.17 1077.91 7056.02 1107.57 7089.72 1130.48C7124.77 1153.4 7167.91 1168.9 7219.13 1176.99C7270.35 1185.08 7326.3 1197.88 7386.96 1215.41C7447.62 1231.58 7503.56 1251.8 7554.78 1276.07C7606.01 1300.33 7648.47 1342.79 7682.17 1403.45C7717.22 1462.77 7734.74 1536.23 7734.74 1623.85C7734.74 1711.47 7717.22 1788.98 7682.17 1856.38C7647.12 1922.43 7601.29 1973.66 7544.67 2010.05C7435.48 2081.5 7318.88 2117.22 7194.87 2117.22C7131.51 2117.22 7071.52 2109.81 7014.91 2094.98C6958.29 2078.8 6912.46 2059.26 6877.41 2036.34C6805.97 1993.2 6756.09 1951.42 6727.78 1910.98L6709.59 1888.73ZM8792.26 1708.78L8828.66 1682.49C8874.49 1655.53 8906.84 1642.05 8925.71 1642.05C8967.5 1642.05 9012.66 1679.79 9061.19 1755.28C9090.84 1802.46 9105.67 1840.21 9105.67 1868.51C9105.67 1896.82 9096.24 1920.41 9077.36 1939.28C9059.84 1958.16 9038.95 1975.01 9014.68 1989.83C8990.42 2004.66 8966.83 2018.82 8943.91 2032.3C8922.34 2045.78 8877.19 2063.3 8808.44 2084.87C8739.69 2106.44 8672.96 2117.22 8608.26 2117.22C8544.9 2117.22 8480.2 2109.13 8414.15 2092.96C8349.44 2075.43 8282.04 2047.12 8211.95 2008.03C8143.2 1967.59 8081.19 1919.06 8025.92 1862.45C7970.66 1804.48 7924.82 1731.02 7888.43 1642.05C7853.38 1551.73 7835.86 1454 7835.86 1348.86C7835.86 1243.72 7853.38 1148.68 7888.43 1063.76C7923.48 977.486 7967.96 906.716 8021.88 851.448C8077.15 794.832 8139.83 747.652 8209.93 709.908C8342.03 637.116 8474.81 600.72 8608.26 600.72C8671.62 600.72 8735.65 610.83 8800.35 631.05C8866.4 649.922 8916.28 669.468 8949.98 689.688L8998.51 717.996C9022.77 732.824 9041.64 744.956 9055.12 754.392C9090.17 782.7 9107.69 815.052 9107.69 851.448C9107.69 886.496 9093.54 923.566 9065.23 962.658C9012.66 1035.45 8965.48 1071.85 8923.69 1071.85C8899.43 1071.85 8865.05 1057.02 8820.57 1027.36C8763.95 981.53 8688.47 958.614 8594.11 958.614C8506.49 958.614 8420.21 988.944 8335.29 1049.6C8294.85 1079.26 8261.15 1121.05 8234.19 1174.97C8207.23 1228.89 8193.75 1290.22 8193.75 1358.97C8193.75 1426.37 8207.23 1487.03 8234.19 1540.95C8261.15 1594.87 8295.52 1637.33 8337.31 1668.34C8419.54 1727.65 8505.14 1757.3 8594.11 1757.3C8635.89 1757.3 8674.99 1751.91 8711.38 1741.13C8749.13 1730.34 8776.09 1719.56 8792.26 1708.78ZM10605.3 720.018L11151.2 1848.29C11174.1 1894.13 11185.6 1928.5 11185.6 1951.42C11185.6 1999.94 11146.5 2043.75 11068.3 2082.85C11022.5 2105.76 10986.1 2117.22 10959.1 2117.22C10933.5 2117.22 10911.9 2111.15 10894.4 2099.02C10878.2 2086.89 10866.1 2074.08 10858 2060.6C10851.3 2047.12 10841.2 2026.9 10827.7 1999.94L10722.5 1781.57H10162.5L10057.3 1999.94C10043.8 2026.9 10033 2046.45 10025 2058.58C10018.2 2070.71 10006.1 2083.52 9988.56 2097C9972.38 2109.13 9950.82 2115.2 9923.86 2115.2C9898.24 2115.2 9862.52 2103.74 9816.69 2080.82C9738.51 2043.08 9699.41 1999.94 9699.41 1951.42C9699.41 1928.5 9710.87 1894.13 9733.79 1848.29L10279.7 717.996C10294.6 686.992 10316.8 662.054 10346.5 643.182C10377.5 624.31 10409.8 614.874 10443.5 614.874C10516.3 614.874 10570.2 649.922 10605.3 720.018ZM10441.5 1205.3L10308 1482.31H10577L10441.5 1205.3ZM11928.9 588.588C11939.7 568.368 11957.9 554.214 11983.5 546.126C12009.1 538.038 12042.8 533.994 12084.6 533.994C12127.7 533.994 12162.1 538.038 12187.7 546.126C12213.3 554.214 12230.8 568.368 12240.3 588.588C12251.1 608.808 12257.1 627.006 12258.5 643.182C12261.2 658.01 12262.5 680.926 12262.5 711.93V1919.06C12262.5 1950.07 12261.2 1973.66 12258.5 1989.83C12257.1 2004.66 12251.1 2021.51 12240.3 2040.38C12220.1 2076.78 12162.8 2094.98 12068.4 2094.98C11975.4 2094.98 11923.5 2061.95 11912.7 1995.9C11856.1 2060.6 11777.2 2092.96 11676.1 2092.96C11554.8 2092.96 11444.3 2040.38 11344.5 1935.24C11244.8 1828.75 11194.9 1705.41 11194.9 1565.21C11194.9 1423.67 11244.8 1299.66 11344.5 1193.17C11445.6 1086.67 11556.2 1033.43 11676.1 1033.43C11775.9 1033.43 11853.4 1067.13 11908.7 1134.53V709.908C11908.7 678.904 11909.3 655.988 11910.7 641.16C11913.4 624.984 11919.5 607.46 11928.9 588.588ZM11601.3 1686.53C11636.4 1722.93 11678.8 1741.13 11728.7 1741.13C11778.6 1741.13 11819.7 1722.93 11852.1 1686.53C11885.8 1650.14 11902.6 1610.37 11902.6 1567.24C11902.6 1522.75 11886.4 1481.64 11854.1 1443.89C11823.1 1406.15 11780.6 1387.28 11726.7 1387.28C11672.8 1387.28 11629.6 1406.15 11597.3 1443.89C11564.9 1480.29 11548.8 1520.73 11548.8 1565.21C11548.8 1609.7 11566.3 1650.14 11601.3 1686.53ZM12771.4 1172.95C12834.7 1077.24 12910.9 1029.38 12999.9 1029.38C13137.4 1029.38 13239.8 1088.02 13307.2 1205.3C13322 1185.08 13339.6 1164.18 13359.8 1142.62C13381.3 1119.7 13415 1095.44 13460.9 1069.82C13506.7 1042.86 13553.9 1029.38 13602.4 1029.38C13710.3 1029.38 13800.6 1071.17 13873.4 1154.75C13946.2 1236.98 13982.5 1373.8 13982.5 1565.21V1919.06C13982.5 1950.07 13981.2 1973.66 13978.5 1989.83C13977.2 2004.66 13971.1 2022.19 13960.3 2042.41C13942.8 2078.8 13890.9 2097 13804.6 2097C13719.7 2097 13667.8 2078.13 13648.9 2040.38C13639.5 2020.16 13633.4 2002.64 13630.7 1987.81C13629.4 1971.64 13628.7 1948.05 13628.7 1917.04V1563.19C13628.7 1445.92 13586.9 1387.28 13503.3 1387.28C13456.2 1387.28 13423.8 1402.78 13406.3 1433.78C13390.1 1464.79 13382 1508.6 13382 1565.21V1919.06C13382 1951.42 13380.7 1975.01 13378 1989.83C13376.6 2004.66 13370.6 2022.19 13359.8 2042.41C13340.9 2078.8 13288.3 2097 13202.1 2097C13117.1 2097 13065.2 2078.13 13046.4 2040.38C13036.9 2020.16 13030.9 2002.64 13028.2 1987.81C13026.8 1971.64 13026.1 1948.05 13026.1 1917.04V1563.19C13026.1 1445.92 12984.4 1387.28 12900.8 1387.28C12819.9 1387.28 12779.5 1445.92 12779.5 1563.19V1921.09C12779.5 1952.09 12778.1 1975.68 12775.4 1991.86C12774.1 2006.68 12768 2024.21 12757.2 2044.43C12737 2079.48 12684.4 2097 12599.5 2097C12514.6 2097 12462.7 2078.8 12443.8 2042.41C12434.4 2022.19 12428.3 2004.66 12425.6 1989.83C12424.3 1975.01 12423.6 1951.42 12423.6 1919.06V1207.32C12423.6 1176.32 12424.3 1153.4 12425.6 1138.57C12428.3 1122.4 12435 1104.87 12445.8 1086C12466 1049.6 12513.9 1031.41 12589.4 1031.41C12664.9 1031.41 12714.1 1043.54 12737 1067.8C12759.9 1092.07 12771.4 1127.11 12771.4 1172.95ZM14143.5 1209.34C14143.5 1178.34 14144.1 1155.42 14145.5 1140.59C14148.2 1124.42 14154.3 1106.22 14163.7 1086C14182.6 1050.95 14235.1 1033.43 14321.4 1033.43C14386.1 1033.43 14431.9 1044.89 14458.9 1067.8C14481.8 1086.67 14493.9 1115.66 14495.3 1154.75C14496.6 1168.23 14497.3 1187.77 14497.3 1213.39V1921.09C14497.3 1952.09 14496 1975.68 14493.3 1991.86C14491.9 2006.68 14485.9 2024.21 14475.1 2044.43C14457.6 2079.48 14405.7 2097 14319.4 2097C14234.5 2097 14182.6 2078.8 14163.7 2042.41C14154.3 2022.19 14148.2 2004.66 14145.5 1989.83C14144.1 1975.01 14143.5 1951.42 14143.5 1919.06V1209.34ZM14475.1 835.272C14465.6 854.144 14448.1 867.624 14422.5 875.712C14396.9 883.8 14362.5 887.844 14319.4 887.844C14277.6 887.844 14243.9 883.8 14218.3 875.712C14192.7 867.624 14174.5 853.47 14163.7 833.25C14154.3 813.03 14148.2 795.506 14145.5 780.678C14144.1 764.502 14143.5 740.912 14143.5 709.908C14143.5 678.904 14144.1 655.988 14145.5 641.16C14148.2 624.984 14154.3 607.46 14163.7 588.588C14182.6 552.192 14235.1 533.994 14321.4 533.994C14406.3 533.994 14457.6 552.192 14475.1 588.588C14485.9 608.808 14491.9 627.006 14493.3 643.182C14496 658.01 14497.3 680.926 14497.3 711.93C14497.3 742.934 14496 766.524 14493.3 782.7C14491.9 797.528 14485.9 815.052 14475.1 835.272ZM15251.3 1031.41C15386.1 1031.41 15498 1083.3 15586.9 1187.1C15677.3 1289.55 15722.4 1414.91 15722.4 1563.19V1919.06C15722.4 1950.07 15721.1 1973.66 15718.4 1989.83C15717 2004.66 15711.6 2021.51 15702.2 2040.38C15683.3 2076.78 15630.8 2094.98 15544.5 2094.98C15448.8 2094.98 15393.5 2070.04 15378.7 2020.16C15370.6 1997.25 15366.5 1962.87 15366.5 1917.04V1561.17C15366.5 1505.9 15350.4 1462.77 15318 1431.76C15287 1400.76 15244.5 1385.26 15190.6 1385.26C15138.1 1385.26 15094.9 1401.43 15061.2 1433.78C15028.9 1466.14 15012.7 1508.6 15012.7 1561.17V1919.06C15012.7 1950.07 15011.3 1973.66 15008.6 1989.83C15007.3 2004.66 15001.2 2021.51 14990.5 2040.38C14972.9 2076.78 14921 2094.98 14834.8 2094.98C14749.8 2094.98 14697.9 2076.78 14679.1 2040.38C14669.6 2020.16 14663.6 2002.64 14660.9 1987.81C14659.5 1971.64 14658.8 1948.05 14658.8 1917.04V1201.25C14658.8 1171.6 14659.5 1149.36 14660.9 1134.53C14663.6 1118.35 14670.3 1100.83 14681.1 1081.96C14700 1048.26 14751.9 1031.41 14836.8 1031.41C14919 1031.41 14969.6 1046.91 14988.4 1077.91C15001.9 1100.83 15008.6 1128.46 15008.6 1160.81C15014 1151.38 15026.2 1137.9 15045 1120.37C15063.9 1102.85 15082.1 1088.7 15099.6 1077.91C15145.5 1046.91 15196 1031.41 15251.3 1031.41Z" fill="#7E06AA"/>
<g clip-path="url(#clip0_119_2)">
<path d="M1934.47 447.129C1929.21 498.729 1890.87 714.238 1780.19 919.224C1779.66 920.025 1778.93 920.677 1778.07 921.116C1777.21 921.556 1776.26 921.768 1775.29 921.734C1774.33 921.7 1773.39 921.421 1772.57 920.922C1771.74 920.423 1771.06 919.722 1770.58 918.884C1747.96 872.263 1629.99 666.655 1322.17 664.788C974.929 662.638 805.043 932.237 805.043 932.237C805.043 932.237 672.425 1118.55 615.645 1469.11C558.865 1819.68 487.778 1916.09 487.778 1916.09L430.206 2007.24C429.112 2008.98 428.403 2010.93 428.129 2012.97C427.854 2015.01 428.02 2017.08 428.615 2019.05C429.21 2021.02 430.221 2022.84 431.578 2024.38C432.935 2025.92 434.608 2027.16 436.484 2028C510.003 2060.87 847.514 2199.89 1294.29 2199.89C1598.54 2199.89 1690.16 2157 1714.2 2140.2C1714.82 2139.78 1715.3 2139.18 1715.55 2138.47C1715.81 2137.77 1715.82 2137 1715.6 2136.28C1715.37 2135.56 1714.92 2134.94 1714.31 2134.5C1713.7 2134.07 1712.97 2133.84 1712.22 2133.86C1652.55 2140.42 1422.66 2104.1 1422.66 1884.91C1422.66 1688.07 1565.74 1592.85 1715.67 1586.01C1786.7 1582.72 1938.2 1612.82 1985.54 1751.78C2025.13 1868.67 1972.48 1973.29 1954.72 2003.56C1954.34 2004.19 1954.17 2004.93 1954.24 2005.66C1954.3 2006.4 1954.6 2007.09 1955.08 2007.65C1955.56 2008.21 1956.21 2008.6 1956.92 2008.77C1957.64 2008.94 1958.39 2008.88 1959.07 2008.59C2012.91 1986.87 2262.82 1862.79 2272.77 1477.03C2281.54 1138.07 2003.35 992.606 1872.38 986.439C1871.33 986.356 1870.32 986.028 1869.42 985.481C1868.53 984.934 1867.78 984.184 1867.23 983.291C1866.67 982.398 1866.34 981.388 1866.25 980.343C1866.17 979.297 1866.33 978.246 1866.72 977.274C1901.95 887.087 2121.21 653.246 2159.89 612.566C2161.47 610.913 2162.36 608.714 2162.36 606.427C2162.36 604.14 2161.47 601.941 2159.89 600.288C2096.98 536.861 2024.97 483.163 1946.23 440.962C1945.08 440.345 1943.79 440.019 1942.48 440.014C1941.17 440.008 1939.88 440.324 1938.72 440.932C1937.56 441.54 1936.57 442.422 1935.83 443.502C1935.09 444.583 1934.62 445.828 1934.47 447.129V447.129Z" fill="white"/>
</g>
<defs>
<clipPath id="clip0_119_2">
<rect width="1845" height="1760" fill="white" transform="translate(428 440)"/>
</clipPath>
</defs>
</svg>
