<svg xmlns="http://www.w3.org/2000/svg" width="9158" height="2700" fill="none" xmlns:v="https://vecta.io/nano"><g fill="#28b5b5"><circle cx="1350" cy="1350" r="1350"/><path d="M3996.28 1203.28h355.88c72.79 2.69 117.27 21.56 133.45 56.61 13.48 25.61 20.22 63.36 20.22 113.23v444.84c0 43.14-18.87 84.25-56.62 123.35-113.23 117.27-283.08 175.91-509.54 175.91-200.85 0-375.42-75.49-523.7-226.46-148.28-152.33-222.42-335.66-222.42-549.99s75.49-392.94 226.46-535.828c150.98-144.236 328.92-216.354 533.81-216.354 159.07 0 309.37 52.572 450.91 157.716 36.39 26.96 54.59 57.29 54.59 90.99 0 32.352-15.5 70.096-46.5 113.232-52.58 71.444-100.43 107.164-143.57 107.164-25.61 0-66.72-18.2-123.34-54.59-56.61-37.746-124.01-56.618-202.2-56.618-102.45 0-193.44 36.396-272.97 109.188-79.53 71.44-119.3 165.8-119.3 283.08 0 115.93 40.44 215.01 121.32 297.23 80.88 80.88 172.55 121.32 275 121.32 74.14 0 140.86-12.13 200.17-36.39v-220.4H3988.2c-41.79 0-71.45-5.39-88.97-16.18-17.53-10.78-28.98-26.28-34.38-46.5-5.39-21.57-8.08-49.88-8.08-84.93 0-36.39 2.69-65.37 8.08-86.94 6.74-21.57 18.2-36.4 34.38-44.49 24.26-12.13 56.61-18.19 97.05-18.19zm2444.33-580.318c90.32 32.352 135.48 75.488 135.48 129.408 0 17.524-8.09 50.55-24.27 99.078L6163.6 1973.66c-2.7 9.43-7.41 20.89-14.15 34.37s-24.94 31.68-54.6 54.6c-28.31 21.56-62.68 32.35-103.12 32.35-39.09 0-73.47-10.79-103.12-32.35-28.31-22.92-47.18-45.16-56.62-66.73l-236.57-697.59-228.49 675.35c-2.69 8.09-8.76 19.54-18.2 34.37-9.43 14.83-20.22 28.31-32.35 40.44-31 31.01-68.07 46.51-111.21 46.51-43.13 0-78.86-10.11-107.16-30.33-26.96-20.22-45.16-40.44-54.6-60.66l-14.15-30.33-390.25-1122.212c-14.83-44.484-22.24-77.51-22.24-99.078 0-53.92 45.16-96.382 135.47-127.386 39.1-13.48 74.14-20.22 105.15-20.22 32.35 0 56.61 10.784 72.79 32.352 17.52 21.568 33.03 54.594 46.51 99.078l222.42 675.346 220.39-665.236c18.88-56.616 53.25-95.708 103.13-117.276 21.56-9.436 49.2-14.154 82.9-14.154 35.05 0 67.4 11.458 97.05 34.374 29.66 21.568 48.53 43.136 56.62 64.704l232.53 701.638 222.42-679.396c10.78-31.004 19.55-53.92 26.29-68.748s18.87-28.982 36.39-42.462c18.87-14.828 41.79-22.242 68.75-22.242s58.64 6.74 95.03 20.22zm268.98 1265.768c-35.05-43.13-52.58-81.55-52.58-115.25 0-35.05 28.99-80.88 86.95-137.5 33.7-32.35 69.42-48.52 107.17-48.52 37.74 0 90.31 33.7 157.71 101.1 18.87 22.91 45.83 45.15 80.88 66.72 35.05 20.22 67.4 30.33 97.06 30.33 125.36 0 188.04-51.22 188.04-153.67 0-31-17.52-56.62-52.57-76.84-33.7-21.56-76.16-37.07-127.38-46.5-51.23-9.44-106.5-24.27-165.81-44.49-59.31-21.56-114.58-46.5-165.8-74.81-51.23-28.31-94.36-72.79-129.41-133.45-33.7-62.01-50.55-136.15-50.55-222.42 0-118.626 43.81-221.748 131.43-309.368 88.97-88.968 209.61-133.452 361.94-133.452 80.88 0 154.34 10.784 220.4 32.352 67.4 20.22 113.9 41.114 139.51 62.682l50.55 38.418c41.79 39.092 62.69 72.118 62.69 99.078s-16.18 64.03-48.53 111.21c-45.83 67.4-93.01 101.1-141.54 101.1-28.31 0-63.36-13.48-105.15-40.44-4.04-2.696-12.13-9.436-24.26-20.22-10.78-10.784-20.89-19.546-30.33-26.286-28.31-17.524-64.7-26.286-109.19-26.286-43.13 0-79.53 10.784-109.19 32.352-28.3 20.22-42.46 49.2-42.46 86.95 0 36.39 16.85 66.05 50.55 88.96 35.05 22.92 78.19 38.42 129.41 46.51s107.17 20.89 167.83 38.42c60.66 16.17 116.6 36.39 167.82 60.66 51.23 24.26 93.69 66.72 127.39 127.38 35.05 59.32 52.57 132.78 52.57 220.4s-17.52 165.13-52.57 232.53c-35.05 66.05-80.88 117.28-137.5 153.67-109.19 71.45-225.79 107.17-349.8 107.17-63.36 0-123.35-7.41-179.96-22.24-56.62-16.18-102.45-35.72-137.5-58.64-71.44-43.14-121.32-84.92-149.63-125.36l-18.19-22.25zm2082.67-179.95l36.4-26.29c45.83-26.96 78.18-40.44 97.05-40.44 41.79 0 86.95 37.74 135.48 113.23 29.65 47.18 44.48 84.93 44.48 113.23 0 28.31-9.43 51.9-28.31 70.77-17.52 18.88-38.41 35.73-62.68 50.55l-70.77 42.47c-21.57 13.48-66.72 31-135.47 52.57s-135.48 32.35-200.18 32.35c-63.36 0-128.06-8.09-194.11-24.26-64.71-17.53-132.11-45.84-202.2-84.93-68.75-40.44-130.76-88.97-186.03-145.58-55.26-57.97-101.1-131.43-137.49-220.4-35.05-90.32-52.57-188.05-52.57-293.19s17.52-200.18 52.57-285.1c35.05-86.274 79.53-157.044 133.45-212.312 55.27-56.616 117.95-103.796 188.05-141.54 132.1-72.792 264.88-109.188 398.33-109.188 63.36 0 127.39 10.11 192.09 30.33 66.05 18.872 115.93 38.418 149.63 58.638l48.53 28.308c24.26 14.828 43.13 26.96 56.61 36.396 35.05 28.308 52.57 60.66 52.57 97.056 0 35.048-14.15 72.118-42.46 111.21-52.57 72.792-99.75 109.192-141.54 109.192-24.26 0-58.64-14.83-103.12-44.49-56.62-45.83-132.1-68.746-226.46-68.746-87.62 0-173.9 30.33-258.82 90.986-40.44 29.66-74.14 71.45-101.1 125.37s-40.44 115.25-40.44 184c0 67.4 13.48 128.06 40.44 181.98s61.33 96.38 103.12 127.39c82.23 59.31 167.83 88.96 256.8 88.96 41.78 0 80.88-5.39 117.27-16.17 37.75-10.79 64.71-21.57 80.88-32.35z"/></g><g clip-path="url(#A)"><path d="M1934.47 447.129c-5.26 51.6-43.6 267.109-154.28 472.095-.53.801-1.26 1.453-2.12 1.892a5.67 5.67 0 0 1-2.78.618 5.62 5.62 0 0 1-2.72-.812 5.64 5.64 0 0 1-1.99-2.038c-22.62-46.621-140.59-252.229-448.41-254.096-347.242-2.15-517.128 267.449-517.128 267.449S672.424 1118.55 615.644 1469.11c-56.779 350.57-127.867 446.98-127.867 446.98l-57.572 91.15c-1.094 1.74-1.803 3.69-2.077 5.73a14.37 14.37 0 0 0 .486 6.08 14.33 14.33 0 0 0 2.963 5.33c1.358 1.54 3.031 2.78 4.906 3.62 73.519 32.87 411.03 171.89 857.807 171.89 304.25 0 395.87-42.89 419.91-59.69.62-.42 1.1-1.02 1.35-1.73a3.42 3.42 0 0 0 .05-2.19 3.5 3.5 0 0 0-1.29-1.78c-.61-.43-1.34-.66-2.09-.64-59.67 6.56-289.56-29.76-289.56-248.95 0-196.84 143.08-292.06 293.01-298.9 71.03-3.29 222.53 26.81 269.87 165.77 39.59 116.89-13.07 221.51-30.82 251.78a3.44 3.44 0 0 0-.48 2.1 3.49 3.49 0 0 0 .84 1.99 3.5 3.5 0 0 0 1.84 1.12c.72.17 1.47.11 2.15-.18 53.84-21.72 303.75-145.8 313.7-531.56 8.77-338.96-269.42-484.424-400.39-490.591a6.71 6.71 0 0 1-2.96-.958 6.81 6.81 0 0 1-2.2-2.19 6.72 6.72 0 0 1-.97-2.948c-.08-1.046.08-2.097.47-3.069 35.23-90.187 254.49-324.028 293.17-364.708 1.58-1.653 2.46-3.852 2.46-6.139s-.88-4.486-2.46-6.139c-62.91-63.427-134.92-117.125-213.66-159.326-1.15-.617-2.44-.943-3.75-.948a8.02 8.02 0 0 0-3.76.918 8.01 8.01 0 0 0-2.89 2.57 8.06 8.06 0 0 0-1.36 3.627z" fill="#fff"/></g><defs><clipPath id="A"><path fill="#fff" transform="translate(428 440)" d="M0 0h1845v1760H0z"/></clipPath></defs></svg>